<?xml version="1.0" encoding="UTF-8"?> <svg xmlns="http://www.w3.org/2000/svg" xmlns:xlink="http://www.w3.org/1999/xlink" version="1.1" id="Слой_1" x="0px" y="0px" viewBox="0 0 800 799.994" style="enable-background:new 0 0 800 799.994;" xml:space="preserve"> <g id="Page-1"> <g id="Dribbble-Light-Preview" transform="translate(-340.000000, -7439.000000)"> <g id="icons" transform="translate(56.000000, 160.000000)"> <path id="instagram-_x5B__x23_167_x5D_" style="fill-rule:evenodd;clip-rule:evenodd;" d="M518.787,7283.903 c-65.116,2.949-121.554,18.867-167.126,64.238c-45.732,45.625-61.454,102.285-64.399,166.719 c-1.831,40.215-12.538,344.062,18.508,423.75c20.935,53.75,62.169,95.098,116.418,116.094 c25.314,9.844,54.21,16.523,96.599,18.457c354.432,16.035,485.817,7.305,541.221-134.551 c9.832-25.254,16.598-54.121,18.468-96.406c16.199-355.332-2.627-432.363-64.398-494.062 C965.081,7299.274,907.449,7266.012,518.787,7283.903 M522.049,8001.696c-38.806-1.738-59.861-8.223-73.911-13.652 c-35.343-13.73-61.891-40.176-75.543-75.312c-23.643-60.547-15.801-348.125-13.691-394.648 c2.069-45.586,11.304-87.227,43.463-119.395c39.801-39.707,91.226-59.16,441.359-43.359 c45.692,2.07,87.444,11.289,119.684,43.359c39.801,39.707,59.543,91.523,43.463,440.312c-1.752,38.711-8.239,59.707-13.691,73.73 C957.161,8005.036,874.293,8017.868,522.049,8001.696 M847.587,7466.579c0,26.289,21.373,47.656,47.762,47.656 c26.388,0,47.802-21.367,47.802-47.656c0-26.27-21.414-47.637-47.802-47.637C868.96,7418.942,847.587,7440.309,847.587,7466.579 M478.507,7678.512c0,112.598,91.504,203.887,204.381,203.887s204.381-91.289,204.381-203.887s-91.504-203.828-204.381-203.828 S478.507,7565.915,478.507,7678.512 M550.229,7678.512c0-73.047,59.384-132.324,132.659-132.324 c73.274,0,132.659,59.277,132.659,132.324c0,73.105-59.385,132.383-132.659,132.383 C609.613,7810.895,550.229,7751.618,550.229,7678.512"></path> </g> </g> </g> </svg> 