<?xml version="1.0" encoding="UTF-8"?> <svg xmlns="http://www.w3.org/2000/svg" xmlns:xlink="http://www.w3.org/1999/xlink" version="1.1" id="Слой_1" x="0px" y="0px" viewBox="0 0 49.921 49.916" style="enable-background:new 0 0 49.921 49.916;" xml:space="preserve"> <g> <path d="M49.921,40.895c-0.47,1.816-1.799,3.068-2.943,4.434c-1.026,1.225-2.135,2.376-3.39,3.373 c-0.27,0.215-0.56,0.406-0.845,0.602c-0.77,0.528-1.614,0.672-2.543,0.593c-3.111-0.263-5.936-1.385-8.656-2.824 c-3.844-2.034-7.296-4.63-10.561-7.479c-5.085-4.438-9.79-9.243-13.874-14.63c-2.418-3.19-4.545-6.556-5.954-10.331 c-0.597-1.601-0.988-3.249-1.138-4.958c-0.081-0.93,0.103-1.761,0.614-2.539c0.81-1.235,1.843-2.27,2.911-3.273 C4.503,2.961,5.518,2.121,6.548,1.3C7.295,0.705,8.096,0.235,9.026,0c0.373,0,0.745,0,1.118,0c0.066,0.085,0.168,0.065,0.256,0.087 c0.696,0.176,1.268,0.53,1.671,1.14c2.2,3.328,4.403,6.653,6.604,9.981c0.559,0.845,0.529,1.762,0.282,2.688 c-0.31,1.159-1.005,2.135-1.565,3.174c-0.429,0.795-0.879,1.58-1.342,2.356c-0.131,0.22-0.113,0.36,0.032,0.558 c1.331,1.818,2.812,3.508,4.357,5.143c2.707,2.865,5.523,5.615,8.629,8.052c0.365,0.287,0.737,0.726,1.136,0.762 c0.373,0.033,0.787-0.372,1.18-0.59c1.197-0.663,2.39-1.335,3.592-1.992c0.493-0.27,1.028-0.441,1.585-0.515 c0.843-0.111,1.623,0.031,2.354,0.521c3.25,2.174,6.512,4.33,9.775,6.483c0.705,0.465,1.026,1.155,1.23,1.929 C49.921,40.149,49.921,40.522,49.921,40.895z M40.686,47.918c0.275,0.057,0.573-0.046,0.846-0.229 c0.309-0.207,0.629-0.404,0.911-0.644c1.919-1.627,3.544-3.524,5.042-5.535c0.217-0.292,0.372-0.618,0.419-0.981 c0.056-0.429-0.007-0.806-0.419-1.077c-3.186-2.103-6.371-4.207-9.541-6.333c-0.496-0.332-0.975-0.371-1.509-0.201 c-0.292,0.093-0.57,0.217-0.838,0.368c-1.679,0.948-3.365,1.882-5.034,2.848c-0.311,0.18-0.527,0.17-0.818-0.017 c-0.628-0.403-1.239-0.828-1.824-1.289c-3.913-3.08-7.425-6.58-10.729-10.293c-1.256-1.411-2.464-2.865-3.46-4.481 c-0.138-0.223-0.133-0.383-0.002-0.61c0.895-1.556,1.774-3.121,2.655-4.684c0.267-0.475,0.544-0.947,0.666-1.486 c0.087-0.383,0.103-0.747-0.136-1.107c-2.105-3.168-4.199-6.345-6.301-9.515c-0.458-0.691-0.921-0.816-1.703-0.507 C8.638,2.254,8.4,2.423,8.166,2.597c-1.037,0.77-2.023,1.603-2.977,2.474C4.196,5.979,3.245,6.926,2.447,8.018 C2.082,8.516,1.962,9.04,2.023,9.662c0.15,1.521,0.523,2.982,1.062,4.405c1.341,3.541,3.349,6.702,5.632,9.692 c4.593,6.014,9.894,11.345,15.75,16.127c2.933,2.395,6.04,4.537,9.484,6.149C36.071,47.027,38.261,47.781,40.686,47.918z"></path> </g> </svg> 