<?xml version="1.0" encoding="UTF-8"?> <svg xmlns="http://www.w3.org/2000/svg" xmlns:xlink="http://www.w3.org/1999/xlink" version="1.1" id="Слой_1" x="0px" y="0px" viewBox="0 0 716.667 716.667" style="enable-background:new 0 0 716.667 716.667;" xml:space="preserve"> <path style="fill:none;stroke:#FFFFFF;stroke-width:50;stroke-linecap:round;stroke-linejoin:round;stroke-miterlimit:133.3333;" d=" M358.333,691.667c184.093,0,333.333-149.24,333.333-333.333C691.667,174.238,542.427,25,358.333,25 C174.238,25,25,174.238,25,358.333C25,542.427,174.238,691.667,358.333,691.667z"></path> <path style="fill:#FFFFFF;" d="M527.095,172.643L117.146,330.727c-27.977,11.237-27.816,26.844-5.133,33.804l105.25,32.833 L460.782,243.72c11.515-7.006,22.035-3.237,13.388,4.439L276.871,426.22h-0.046l0.046,0.023l-7.26,108.487 c10.636,0,15.33-4.879,21.295-10.636l51.122-49.712l106.337,78.545c19.607,10.798,33.688,5.249,38.567-18.151L556.737,205.8 C563.882,177.152,545.801,164.18,527.095,172.643L527.095,172.643z"></path> </svg> 