<?xml version="1.0" encoding="UTF-8"?> <svg xmlns="http://www.w3.org/2000/svg" xmlns:xlink="http://www.w3.org/1999/xlink" version="1.1" id="Слой_1" x="0px" y="0px" viewBox="0 0 632.251 666.75" style="enable-background:new 0 0 632.251 666.75;" xml:space="preserve"> <path d="M560.952,64.925C544.416,49.691,477.489,1.123,328.269,0.472c0,0-175.912-10.547-261.589,68.099 C19.024,116.227,2.227,186.149,0.404,272.738c-1.823,86.587-4.036,248.827,152.344,292.837h0.13l-0.13,67.19 c0,0-1.042,27.213,16.927,32.68c21.614,6.773,34.375-13.93,55.078-36.197c11.328-12.24,26.953-30.207,38.803-43.88 c107.03,8.983,189.193-11.59,198.567-14.583c21.617-7.03,143.88-22.657,163.673-184.897 C646.369,218.441,615.899,112.711,560.952,64.925z M579.049,373.648c-16.797,135.417-115.883,144.01-134.113,149.87 c-7.813,2.473-80.08,20.443-170.833,14.583c0,0-67.709,81.64-88.802,102.867c-6.901,6.9-14.453,6.25-14.323-7.423 c0-8.983,0.521-111.587,0.521-111.587c-0.13,0-0.13,0,0,0C38.946,485.238,46.758,347.088,48.191,274.821 c1.432-72.266,15.104-131.511,55.469-171.354c72.526-65.755,221.876-55.99,221.876-55.99c126.17,0.521,186.587,38.542,200.65,51.302 C572.669,138.623,596.369,233.935,579.049,373.648z M398.059,268.441c0.523,11.197-16.273,11.98-16.797,0.78 c-1.43-28.645-14.843-42.577-42.447-44.14c-11.197-0.651-10.157-17.448,0.91-16.797 C376.056,210.237,396.239,231.071,398.059,268.441z M424.492,283.154c1.303-55.209-33.203-98.438-98.697-103.255 c-11.07-0.781-9.897-17.578,1.17-16.797c75.523,5.469,115.757,57.422,114.323,120.442 C441.159,294.744,424.232,294.221,424.492,283.154z M485.689,300.601c0.133,11.2-16.797,11.33-16.797,0.13 c-0.78-106.119-71.483-163.931-157.29-164.582c-11.067-0.13-11.067-16.797,0-16.797 C407.566,120.003,484.779,186.279,485.689,300.601z M470.976,428.338v0.26c-14.06,24.74-40.363,52.083-67.447,43.36l-0.26-0.393 c-27.473-7.68-92.187-41.013-133.073-73.567c-21.094-16.667-40.365-36.327-55.208-55.207c-13.411-16.8-26.953-36.72-40.104-60.68 c-27.734-50.129-33.854-72.525-33.854-72.525c-8.724-27.083,18.49-53.385,43.359-67.448h0.261c11.979-6.25,23.437-4.167,31.12,5.078 c0,0,16.146,19.271,23.047,28.776c6.51,8.854,15.233,23.047,19.79,30.99c7.943,14.193,2.997,28.646-4.817,34.635l-15.624,12.5 c-7.943,6.38-6.901,18.23-6.901,18.23s23.176,87.63,109.766,109.763c0,0,11.85,1.043,18.23-6.9l12.5-15.623 c5.99-7.813,20.443-12.763,34.633-4.82c19.143,10.807,43.49,27.607,59.637,42.84C475.142,405.028,477.226,416.358,470.976,428.338z"></path> </svg> 