<?xml version="1.0" encoding="UTF-8"?> <svg xmlns="http://www.w3.org/2000/svg" xmlns:xlink="http://www.w3.org/1999/xlink" version="1.1" id="Слой_1" x="0px" y="0px" viewBox="0 0 744.924 750.013" style="enable-background:new 0 0 744.924 750.013;" xml:space="preserve"> <path style="fill:#FFFFFF;" d="M541.5,449.513c-9.5-4.5-55-27-63.5-30.5s-14.5-4.5-21,5s-24,30-29.5,36.5s-10.5,7-20,0 c-27.286-10.95-52.487-26.51-74.5-46c-19.927-18.762-36.798-40.525-50-64.5c-5.5-9,0-14,4-19s9-10.5,14-16 c3.656-4.757,6.682-9.967,9-15.5c2.513-5.213,2.513-11.287,0-16.5c0-4.5-21-50-29-68.5s-15-16-20.5-16h-20 c-9.527,0.371-18.518,4.507-25,11.5c-21.15,20.183-32.928,48.269-32.5,77.5c2.557,35.499,15.61,69.436,37.5,97.5 c40.169,59.672,95.124,107.908,159.5,140c22,9.5,39,15,52.5,19.5c18.957,5.73,38.995,6.929,58.5,3.5 c26.186-5.312,48.997-21.244,63-44c5.765-13.903,7.666-29.106,5.5-44C557,456.513,551,454.013,541.5,449.513z"></path> <path style="fill:#FFFFFF;" d="M635,109.013c-69.858-70.519-165.241-109.826-264.5-109C165.053,1.088-0.623,168.507,0.452,373.954 C0.789,438.399,17.863,501.651,50,557.513l-50,192.5l197-50c54.462,29.635,115.497,45.109,177.5,45h-4 c205.446,1.339,373.077-164.123,374.416-369.568C745.568,275.472,705.952,179.445,635,109.013L635,109.013z M370.5,681.013 c-55.472,0.044-109.913-14.992-157.5-43.5l-11-6.5l-117,30.5l31-114l-7-11.5C18.975,391.034,63.524,200.525,208.504,110.5 C330.006,35.053,487.406,52.846,589,153.513c58.231,57.761,90.835,136.481,90.5,218.5 C679.225,542.555,541.042,680.737,370.5,681.013z"></path> </svg> 